<svg width="24" height="24" viewBox="0 0 24 24" fill="none" xmlns="http://www.w3.org/2000/svg">
<g clip-path="url(#clip0_122_19711)">
<circle cx="12" cy="12" r="2" stroke="#292929" stroke-width="1.5"/>
<path d="M5.39856 5.87909C4.46882 6.88119 3.79371 8.0704 3.40061 9.34448L4.99992 10.2678C6.33325 11.0376 6.33325 12.9621 4.99992 13.7319L3.3989 14.6563C3.59411 15.2863 3.86207 15.9046 4.20577 16.4999C4.54946 17.0952 4.95089 17.6363 5.39889 18.1204L6.99994 17.196C8.33328 16.4262 9.99994 17.3885 9.99994 18.9281L9.99994 20.7749C11.2999 21.0715 12.6673 21.0814 14 20.7773L14 18.9282C14 17.3886 15.6667 16.4263 17 17.1961L18.6014 18.1207C19.5312 17.1186 20.2063 15.9294 20.5994 14.6553L19 13.7319C17.6667 12.9621 17.6667 11.0376 19 10.2678L20.6011 9.34342C20.4059 8.7134 20.1379 8.09517 19.7942 7.49989C19.4505 6.90458 19.0491 6.3634 18.6011 5.87932L17 6.80368C15.6667 7.57348 14 6.61123 14 5.07162L14 3.22489C12.7001 2.92828 11.3327 2.91835 9.99994 3.22248L9.99995 5.0716C9.99995 6.6112 8.33328 7.57345 6.99994 6.80365L5.39856 5.87909Z" stroke="#292929" stroke-width="1.5" stroke-linejoin="round"/>
</g>
<defs>
<clipPath id="clip0_122_19711">
<rect width="24" height="24" fill="white"/>
</clipPath>
</defs>
</svg>
